{"glyphs":{"0":{"ha":719,"x_min":0,"x_max":608,"o":"m 285 840 q 205 810 233 840 q 176 746 176 779 l 176 308 l 0 308 l 0 746 q 34 873 0 813 q 133 970 68 933 q 285 1007 197 1007 l 304 1007 l 304 840 l 285 840 m 304 -14 l 285 -14 q 133 23 197 -14 q 34 120 68 60 q 0 249 0 181 l 0 311 l 176 311 l 176 249 q 205 185 176 215 q 285 154 233 154 l 304 154 l 304 -14 m 304 1007 l 324 1007 q 476 970 411 1007 q 574 873 540 933 q 608 746 608 813 l 608 308 l 432 308 l 432 746 q 403 810 432 779 q 324 840 375 840 l 304 840 l 304 1007 m 324 154 q 403 185 375 154 q 432 249 432 215 l 432 311 l 608 311 l 608 249 q 574 122 608 182 q 476 24 540 61 q 324 -14 411 -14 l 304 -14 l 304 154 l 324 154 z "},"1":{"ha":397,"x_min":0,"x_max":286,"o":"m 110 1007 l 286 1007 l 286 0 l 110 0 l 110 1007 m 0 1007 l 128 1007 l 128 814 l 0 814 l 0 1007 z "},"2":{"ha":718,"x_min":0,"x_max":607,"o":"m 0 685 l 0 703 q 32 856 0 792 q 117 955 64 921 q 232 989 171 989 l 301 989 l 301 813 l 232 813 q 191 785 206 813 q 176 703 176 758 l 176 685 l 0 685 m 431 703 q 404 784 431 756 q 347 813 378 813 l 301 813 l 301 989 l 347 989 q 472 955 413 989 q 569 856 532 921 q 607 703 607 790 l 607 681 l 431 681 l 431 703 m 0 0 l 0 176 l 586 176 l 586 0 l 0 0 m 431 703 q 404 784 431 756 q 347 813 378 813 l 301 813 l 301 989 l 347 989 q 472 955 413 989 q 569 856 532 921 q 607 703 607 790 l 607 681 l 431 681 l 431 703 m 607 681 l 607 590 q 569 438 607 503 q 472 338 532 372 q 347 304 413 304 l 301 304 l 301 481 l 347 481 q 404 509 378 481 q 431 590 431 538 l 431 681 l 607 681 m 0 176 l 0 194 q 32 348 0 283 q 117 447 64 413 q 232 481 169 481 l 301 481 l 301 304 l 232 304 q 191 277 206 304 q 176 194 176 250 l 176 176 l 0 176 z "},"3":{"ha":719,"x_min":0,"x_max":608,"o":"m 285 846 q 205 817 233 846 q 176 757 176 788 l 176 694 l 0 757 q 34 878 0 821 q 133 972 68 936 q 285 1007 197 1007 l 304 1007 l 304 846 l 285 846 m 304 1007 l 322 1007 q 477 977 413 1007 q 575 897 542 947 q 608 782 608 846 l 608 713 l 432 713 l 432 782 q 404 828 432 810 q 322 846 376 846 l 304 846 l 304 1007 m 322 578 q 403 607 374 578 q 432 667 432 636 l 432 713 l 608 713 l 608 667 q 574 545 608 603 q 476 452 540 488 q 322 417 411 417 l 235 417 l 235 578 l 322 578 m 304 -14 l 285 -14 q 133 22 197 -14 q 34 115 68 57 q 0 236 0 172 l 0 299 l 176 299 l 176 236 q 205 176 176 206 q 285 147 233 147 l 304 147 l 304 -14 m 322 147 q 404 165 376 147 q 432 211 432 183 l 432 281 l 608 281 l 608 211 q 575 97 608 147 q 477 16 542 46 q 322 -14 413 -14 l 304 -14 l 304 147 l 322 147 m 235 576 l 322 576 q 476 541 411 576 q 574 448 540 506 q 608 326 608 390 l 608 281 l 432 281 l 432 326 q 403 386 432 357 q 322 415 374 415 l 235 415 l 235 576 z "},"4":{"ha":901,"x_min":0,"x_max":790,"o":"m 456 1007 l 653 1007 l 222 406 l 0 406 l 456 1007 m 0 406 l 790 406 l 790 213 l 0 213 l 0 406 m 538 0 l 538 1007 l 714 1007 l 714 0 l 538 0 z "},"5":{"ha":718,"x_min":0,"x_max":607,"o":"m 176 286 q 191 203 176 231 q 232 176 206 176 l 301 176 l 301 0 l 232 0 q 117 34 169 0 q 32 133 64 68 q 0 286 0 197 l 0 304 l 176 304 l 176 286 m 607 308 l 607 286 q 569 133 607 199 q 472 34 532 68 q 347 0 413 0 l 301 0 l 301 176 l 347 176 q 404 205 378 176 q 431 286 431 233 l 431 308 l 607 308 m 553 813 l 0 813 l 0 989 l 553 989 l 553 813 m 232 92 q 232 141 232 106 q 232 176 232 176 l 301 176 l 301 0 l 232 0 l 232 92 m 607 308 l 607 286 q 569 133 607 199 q 472 34 532 68 q 347 0 413 0 l 301 0 l 301 176 l 347 176 q 404 205 378 176 q 431 286 431 233 l 431 308 l 607 308 m 431 399 q 404 480 431 451 q 347 508 378 508 l 0 508 l 0 685 l 347 685 q 472 651 413 685 q 569 551 532 617 q 607 399 607 486 l 607 308 l 431 308 l 431 399 m 176 685 l 0 685 l 0 813 l 176 813 l 176 685 z "},"6":{"ha":719,"x_min":0,"x_max":608,"o":"m 324 147 q 403 178 375 147 q 432 242 432 208 l 432 304 l 608 304 l 608 242 q 574 115 608 175 q 476 17 540 54 q 324 -19 411 -19 l 304 -19 l 304 147 l 324 147 m 304 628 l 324 628 q 476 591 411 628 q 574 494 540 554 q 608 367 608 433 l 608 304 l 432 304 l 432 367 q 403 431 432 400 q 324 461 375 461 l 304 461 l 304 628 m 304 -19 l 285 -19 q 133 17 197 -19 q 34 115 68 54 q 0 242 0 175 l 0 304 l 176 304 l 176 242 q 205 178 176 208 q 285 147 233 147 l 304 147 l 304 -19 m 285 461 q 205 431 233 461 q 176 367 176 400 l 176 304 l 0 304 l 0 367 q 34 494 0 433 q 133 591 68 554 q 285 628 197 628 l 304 628 l 304 461 l 285 461 m 304 1007 l 324 1007 q 476 972 411 1007 q 574 878 540 936 q 608 757 608 821 l 432 710 l 432 757 q 403 817 432 788 q 324 846 375 846 l 304 846 l 304 1007 m 285 846 q 205 817 233 846 q 176 757 176 788 l 176 339 l 0 339 l 0 757 q 34 879 0 822 q 133 972 68 936 q 285 1007 197 1007 l 304 1007 l 304 846 l 285 846 z "},"7":{"ha":736,"x_min":0,"x_max":625,"o":"m 449 1007 l 625 1007 l 456 0 l 279 0 l 449 1007 m 0 703 l 0 831 l 176 831 l 176 703 l 0 703 m 0 1007 l 518 1007 l 518 831 l 0 831 l 0 1007 z "},"8":{"ha":719,"x_min":0,"x_max":608,"o":"m 285 861 q 205 835 233 861 q 176 779 176 808 l 176 669 q 190 631 176 651 q 229 599 204 610 q 285 603 257 603 l 324 603 q 379 599 353 603 q 418 631 404 610 q 432 669 432 651 l 432 779 q 403 835 432 808 q 324 861 375 861 l 285 861 m 0 353 q 17 441 0 399 q 68 518 35 483 q 17 590 35 550 q 0 669 0 629 l 0 779 q 34 890 0 838 q 133 974 68 942 q 285 1007 197 1007 l 324 1007 q 476 974 411 1007 q 574 890 540 942 q 608 779 608 838 l 608 669 q 591 588 608 628 q 540 518 574 549 q 591 441 574 483 q 608 353 608 399 l 608 231 q 574 108 608 165 q 476 16 540 51 q 324 -19 411 -19 l 285 -19 q 133 16 197 -19 q 34 109 68 51 q 0 231 0 167 l 0 353 m 176 231 q 205 171 176 200 q 285 142 233 142 l 324 142 q 403 171 375 142 q 432 231 432 200 l 432 353 q 403 413 432 383 q 324 442 375 442 l 285 442 q 205 413 233 442 q 176 353 176 383 l 176 231 z "},"9":{"ha":719,"x_min":0,"x_max":608,"o":"m 285 840 q 205 810 233 840 q 176 746 176 779 l 176 683 l 0 683 l 0 746 q 34 873 0 813 q 133 970 68 933 q 285 1007 197 1007 l 304 1007 l 304 840 l 285 840 m 304 360 l 285 360 q 133 397 197 360 q 34 494 68 433 q 0 621 0 554 l 0 683 l 176 683 l 176 621 q 205 557 176 588 q 285 526 233 526 l 304 526 l 304 360 m 304 1007 l 324 1007 q 476 970 411 1007 q 574 873 540 933 q 608 746 608 813 l 608 683 l 432 683 l 432 746 q 403 810 432 779 q 324 840 375 840 l 304 840 l 304 1007 m 324 526 q 403 557 375 526 q 432 621 432 588 l 432 683 l 608 683 l 608 621 q 574 494 608 554 q 476 397 540 433 q 324 360 411 360 l 304 360 l 304 526 l 324 526 m 304 -19 l 285 -19 q 133 16 197 -19 q 34 109 68 51 q 0 231 0 167 l 176 278 l 176 231 q 205 171 176 200 q 285 142 233 142 l 304 142 l 304 -19 m 324 142 q 403 171 375 142 q 432 231 432 200 l 432 649 l 608 649 l 608 231 q 574 108 608 165 q 476 16 540 51 q 324 -19 411 -19 l 304 -19 l 304 142 l 324 142 z "}," ":{"ha":278,"x_min":0,"x_max":0,"o":""}," ":{"ha":278,"x_min":0,"x_max":0,"o":""},"A":{"ha":1094,"x_min":111,"x_max":983,"o":"m 983 0 l 747 0 l 711 168 l 383 168 l 347 0 l 111 0 l 358 1111 l 736 1111 l 983 0 m 663 390 l 550 913 l 544 913 l 432 390 l 663 390 z "},"B":{"ha":1017,"x_min":83,"x_max":933,"o":"m 83 1111 l 533 1111 q 837 1045 740 1111 q 933 822 933 979 l 933 763 q 906 660 933 704 q 807 585 878 617 q 906 495 878 547 q 933 371 933 443 l 933 285 q 890 116 933 178 q 760 27 847 54 q 533 0 672 0 l 83 0 l 83 1111 m 582 208 q 647 214 624 208 q 684 240 671 219 q 697 303 697 261 l 697 357 q 678 434 697 408 q 626 467 660 460 q 533 475 592 475 l 333 476 l 333 208 l 533 208 l 582 208 m 592 685 q 670 699 643 685 q 697 760 697 714 l 697 808 q 684 871 697 850 q 647 897 671 892 q 582 903 624 903 l 533 903 l 333 903 l 333 685 l 533 685 l 592 685 z "},"C":{"ha":1056,"x_min":83,"x_max":972,"o":"m 481 -14 q 267 39 357 -14 q 131 188 178 92 q 83 411 83 285 l 83 697 q 131 920 83 824 q 267 1069 178 1017 q 481 1122 357 1122 l 575 1122 q 838 1050 739 1122 q 964 838 938 978 l 721 761 q 676 871 714 842 q 556 900 639 900 l 500 900 q 374 844 414 900 q 333 678 333 789 l 333 431 q 373 264 333 319 q 500 208 413 208 l 556 208 q 653 224 618 208 q 706 278 689 239 q 722 389 722 317 l 722 431 l 972 431 l 972 369 q 869 84 972 182 q 575 -14 767 -14 l 481 -14 z "},"D":{"ha":1056,"x_min":83,"x_max":972,"o":"m 83 1111 l 575 1111 q 788 1058 699 1111 q 925 909 878 1006 q 972 686 972 813 l 972 425 q 925 202 972 299 q 788 53 878 106 q 575 0 699 0 l 83 0 l 83 1111 m 556 222 q 683 278 643 222 q 722 444 722 333 l 722 667 q 683 833 722 778 q 556 889 643 889 l 333 889 l 333 222 l 556 222 z "},"E":{"ha":750,"x_min":56,"x_max":667,"o":"m 56 1111 l 667 1111 l 667 889 l 306 889 l 306 650 l 639 650 l 639 428 l 306 428 l 306 222 l 667 222 l 667 0 l 56 0 l 56 1111 z "},"F":{"ha":806,"x_min":83,"x_max":722,"o":"m 83 1111 l 722 1111 l 722 889 l 333 889 l 333 650 l 694 650 l 694 428 l 333 428 l 333 0 l 83 0 l 83 1111 z "},"G":{"ha":1056,"x_min":83,"x_max":972,"o":"m 83 697 q 131 920 83 824 q 267 1069 178 1017 q 481 1122 357 1122 l 575 1122 q 839 1050 739 1122 q 964 838 939 978 l 721 761 q 676 871 714 842 q 556 900 639 900 l 500 900 q 373 844 413 900 q 333 678 333 789 l 333 431 q 373 264 333 319 q 500 208 413 208 l 556 208 q 681 241 643 208 q 722 365 718 274 l 528 365 l 528 588 l 972 588 l 972 369 l 972 365 q 868 83 971 179 q 575 -14 765 -14 l 481 -14 q 267 39 357 -14 q 131 188 178 92 q 83 411 83 285 l 83 697 z "},"H":{"ha":940,"x_min":83,"x_max":857,"o":"m 607 433 l 333 433 l 333 0 l 83 0 l 83 1111 l 333 1111 l 333 656 l 607 656 l 607 1111 l 857 1111 l 857 0 l 607 0 l 607 433 z "},"I":{"ha":361,"x_min":56,"x_max":306,"o":"m 56 1111 l 306 1111 l 306 0 l 56 0 l 56 1111 z "},"J":{"ha":1040,"x_min":83,"x_max":957,"o":"m 324 349 q 375 243 336 278 q 483 208 414 208 l 539 208 q 666 264 626 208 q 706 431 706 319 l 706 889 l 513 889 l 513 1111 l 957 1111 l 957 889 l 956 889 l 956 411 q 908 188 956 285 q 772 39 861 92 q 558 -14 682 -14 l 464 -14 q 216 63 314 -14 q 83 272 118 139 l 324 349 z "},"K":{"ha":1139,"x_min":83,"x_max":1028,"o":"m 83 1111 l 333 1111 l 333 643 l 340 643 l 715 1111 l 979 1111 l 654 703 l 1028 -3 l 764 -3 l 501 508 l 333 297 l 333 0 l 83 0 l 83 1111 z "},"L":{"ha":806,"x_min":83,"x_max":722,"o":"m 83 1111 l 333 1111 l 333 222 l 722 222 l 722 0 l 83 0 l 83 1111 z "},"M":{"ha":1206,"x_min":83,"x_max":1122,"o":"m 83 1111 l 458 1111 l 606 436 l 608 436 l 747 1111 l 1122 1111 l 1122 0 l 886 0 l 897 883 l 892 883 l 700 0 l 506 0 l 314 883 l 308 883 l 319 0 l 83 0 l 83 1111 z "},"N":{"ha":958,"x_min":83,"x_max":875,"o":"m 83 1111 l 322 1111 l 626 472 l 631 472 l 631 1111 l 875 1111 l 875 0 l 631 0 l 631 3 l 322 633 l 318 633 l 326 0 l 83 0 l 83 1111 z "},"O":{"ha":1056,"x_min":83,"x_max":972,"o":"m 490 -14 q 269 40 361 -14 q 131 191 178 93 q 83 421 83 289 l 83 688 q 131 917 83 819 q 269 1069 178 1015 q 490 1122 361 1122 l 565 1122 q 786 1069 694 1122 q 925 917 878 1015 q 972 688 972 819 l 972 421 q 925 191 972 289 q 786 40 878 93 q 565 -14 694 -14 l 490 -14 m 565 208 q 722 421 722 208 l 722 688 q 565 900 722 900 l 490 900 q 333 688 333 900 l 333 421 q 490 208 333 208 l 565 208 z "},"P":{"ha":1017,"x_min":83,"x_max":933,"o":"m 83 1111 l 550 1111 q 840 1042 747 1111 q 933 808 933 974 l 933 731 q 836 488 933 571 q 550 406 739 406 l 333 406 l 333 0 l 83 0 l 83 1111 m 586 601 q 669 622 642 601 q 697 710 697 643 l 697 836 q 669 901 697 886 q 582 917 640 917 l 531 917 l 333 917 l 333 603 l 531 603 l 586 601 z "},"Q":{"ha":1056,"x_min":83,"x_max":972,"o":"m 744 -267 q 640 -176 683 -206 q 549 -146 596 -146 q 408 -215 483 -146 l 388 -235 l 272 -110 l 306 -76 q 393 -7 349 -33 q 164 133 244 19 q 83 421 83 246 l 83 688 q 131 917 83 819 q 269 1069 178 1015 q 490 1122 361 1122 l 565 1122 q 786 1069 694 1122 q 925 917 878 1015 q 972 688 972 819 l 972 421 q 910 163 972 268 q 735 14 849 57 q 888 -96 817 -25 l 931 -139 l 774 -296 l 744 -267 m 556 208 q 682 262 642 208 q 722 421 722 315 l 722 688 q 565 900 722 900 l 490 900 q 333 688 333 900 l 333 421 q 374 262 333 315 q 500 208 414 208 l 556 208 z "},"R":{"ha":1017,"x_min":83,"x_max":933,"o":"m 83 1111 l 550 1111 q 840 1042 747 1111 q 933 808 933 974 l 933 758 q 756 468 933 539 l 929 0 l 679 0 l 522 433 l 333 433 l 333 0 l 83 0 l 83 1111 m 586 629 q 669 650 642 629 q 697 738 697 671 l 697 836 q 669 901 697 886 q 582 917 640 917 l 531 917 l 333 917 l 333 631 l 531 631 l 586 629 z "},"S":{"ha":1056,"x_min":83,"x_max":972,"o":"m 481 -14 q 270 33 361 -14 q 131 153 179 81 q 83 300 83 226 l 83 361 l 333 361 l 333 319 q 352 274 333 300 q 408 228 371 247 q 500 208 446 208 l 556 208 q 685 229 647 208 q 722 306 722 250 l 722 361 q 668 427 722 407 q 499 464 614 447 q 298 506 378 483 q 156 583 218 529 q 85 733 94 638 l 83 733 l 83 850 q 131 990 83 928 q 267 1087 178 1051 q 481 1122 357 1122 l 575 1122 q 765 1085 682 1122 q 900 988 849 1047 q 967 860 951 928 l 722 782 l 722 789 q 703 835 722 808 q 647 881 685 861 q 556 900 610 900 l 500 900 q 372 883 411 900 q 333 831 333 867 l 333 765 q 385 704 333 724 q 550 665 438 685 q 755 619 672 644 q 901 540 838 594 q 972 389 964 485 l 972 272 q 925 123 972 188 q 788 22 878 58 q 575 -14 699 -14 l 481 -14 z "},"T":{"ha":889,"x_min":83,"x_max":806,"o":"m 318 889 l 83 889 l 83 1111 l 806 1111 l 806 889 l 568 889 l 568 0 l 318 0 l 318 889 z "},"U":{"ha":1056,"x_min":83,"x_max":972,"o":"m 481 -14 q 266 40 356 -14 q 130 191 176 93 q 83 421 83 289 l 83 1111 l 333 1111 l 333 421 q 374 262 333 315 q 500 208 414 208 l 556 208 q 682 262 642 208 q 722 421 722 315 l 722 1111 l 972 1111 l 972 421 q 926 191 972 289 q 790 40 879 93 q 575 -14 700 -14 l 481 -14 z "},"V":{"ha":1081,"x_min":111,"x_max":969,"o":"m 111 1111 l 347 1111 l 538 229 l 543 229 l 733 1111 l 969 1111 l 722 0 l 358 0 l 111 1111 z "},"W":{"ha":1703,"x_min":111,"x_max":1592,"o":"m 111 1111 l 347 1111 l 535 243 l 538 243 l 747 1111 l 969 1111 l 1167 250 l 1169 250 l 1356 1111 l 1592 1111 l 1344 0 l 994 0 l 856 625 l 708 0 l 358 0 l 111 1111 z "},"X":{"ha":1126,"x_min":111,"x_max":1015,"o":"m 439 563 l 111 1111 l 361 1111 l 564 761 l 765 1111 l 1015 1111 l 689 563 l 1015 0 l 765 0 l 564 350 l 361 0 l 111 0 l 439 563 z "},"Y":{"ha":1126,"x_min":111,"x_max":1015,"o":"m 439 424 l 111 1111 l 361 1111 l 564 622 l 765 1111 l 1015 1111 l 689 424 l 689 0 l 439 0 l 439 424 z "},"Z":{"ha":833,"x_min":83,"x_max":750,"o":"m 444 889 l 83 889 l 83 1111 l 750 1111 l 750 931 l 389 222 l 750 222 l 750 0 l 83 0 l 83 181 l 444 889 z "},"a":{"ha":654,"x_min":0,"x_max":654,"o":"m 654 4 l 478 4 l 450 131 l 204 131 l 176 4 l 0 4 l 186 838 l 468 838 l 654 4 m 413 297 l 329 688 l 325 688 l 239 297 l 413 297 z "},"b":{"ha":833,"x_min":69,"x_max":707,"o":"m 69 833 l 407 833 q 634 784 561 833 q 707 617 707 735 l 707 572 q 687 496 707 528 q 613 439 667 464 q 687 372 667 411 q 707 278 707 333 l 707 214 q 635 48 707 96 q 407 0 564 0 l 69 0 l 69 833 m 407 157 q 458 156 417 157 q 515 173 499 156 q 531 228 531 190 l 531 268 q 501 340 531 324 q 407 357 472 357 l 257 357 l 257 157 l 407 157 m 451 514 q 510 525 489 514 q 531 569 531 536 l 531 607 q 517 659 531 644 q 484 676 503 674 q 407 678 465 678 l 257 678 l 257 514 l 407 514 l 451 514 z "},"c":{"ha":833,"x_min":69,"x_max":736,"o":"m 368 -6 q 149 81 228 -6 q 69 314 69 168 l 69 528 q 149 760 69 674 q 368 847 228 847 l 439 847 q 636 793 561 847 q 731 633 711 739 l 547 576 q 514 658 542 636 q 424 681 486 681 l 382 681 q 287 639 317 681 q 257 514 257 597 l 257 328 q 287 203 257 244 q 382 161 317 161 l 424 161 q 521 190 493 161 q 549 297 549 218 l 549 328 l 736 328 l 736 282 q 659 68 736 142 q 439 -6 582 -6 l 368 -6 z "},"d":{"ha":833,"x_min":83,"x_max":750,"o":"m 83 831 l 453 831 q 671 744 592 831 q 750 513 750 657 l 750 317 q 671 85 750 172 q 453 -3 592 -3 l 83 -3 l 83 831 m 438 164 q 533 206 503 164 q 563 331 563 247 l 563 497 q 533 622 563 581 q 438 664 503 664 l 271 664 l 271 164 l 438 164 z "},"e":{"ha":569,"x_min":56,"x_max":514,"o":"m 56 833 l 514 833 l 514 667 l 243 667 l 243 488 l 493 488 l 493 321 l 243 321 l 243 167 l 514 167 l 514 0 l 56 0 l 56 833 z "},"f":{"ha":590,"x_min":56,"x_max":535,"o":"m 56 832 l 535 832 l 535 665 l 243 665 l 243 486 l 514 486 l 514 319 l 243 319 l 243 -1 l 56 -1 l 56 832 z "},"g":{"ha":778,"x_min":56,"x_max":722,"o":"m 56 524 q 135 756 56 669 q 354 843 214 843 l 425 843 q 623 788 547 843 q 717 629 699 733 l 533 572 q 500 654 528 632 q 410 676 472 676 l 368 676 q 273 635 303 676 q 243 510 243 593 l 243 324 q 273 199 243 240 q 368 157 303 157 l 410 157 q 503 182 475 157 q 535 275 532 207 l 389 275 l 389 442 l 722 442 l 722 278 l 722 275 q 644 63 721 136 q 425 -10 567 -10 l 354 -10 q 135 77 214 -10 q 56 310 56 164 l 56 524 z "},"h":{"ha":692,"x_min":56,"x_max":636,"o":"m 449 325 l 243 325 l 243 0 l 56 0 l 56 833 l 243 833 l 243 492 l 449 492 l 449 833 l 636 833 l 636 0 l 449 0 l 449 325 z "},"i":{"ha":299,"x_min":56,"x_max":243,"o":"m 56 833 l 243 833 l 243 0 l 56 0 l 56 833 z "},"j":{"ha":833,"x_min":82,"x_max":738,"o":"m 263 258 q 375 153 282 153 l 431 153 q 549 313 549 153 l 549 664 l 404 664 l 404 831 l 738 831 l 736 313 q 656 74 736 163 q 431 -14 576 -14 l 375 -14 q 182 43 257 -14 q 82 201 107 100 l 263 258 z "},"k":{"ha":833,"x_min":56,"x_max":764,"o":"m 56 836 l 243 836 l 243 485 l 249 485 l 529 836 l 728 836 l 485 529 l 764 0 l 567 0 l 369 383 l 243 225 l 243 3 l 56 3 l 56 836 z "},"l":{"ha":590,"x_min":56,"x_max":535,"o":"m 56 833 l 243 833 l 243 167 l 535 167 l 535 0 l 56 0 l 56 833 z "},"m":{"ha":890,"x_min":56,"x_max":835,"o":"m 56 833 l 338 833 l 447 328 l 450 328 l 554 833 l 835 833 l 835 0 l 658 0 l 665 663 l 663 663 l 518 0 l 372 0 l 228 663 l 225 663 l 233 0 l 56 0 l 56 833 z "},"n":{"ha":733,"x_min":56,"x_max":650,"o":"m 56 833 l 235 833 l 463 354 l 467 354 l 467 833 l 650 833 l 650 0 l 467 0 l 467 3 l 235 475 l 232 475 l 238 0 l 56 0 l 56 833 z "},"o":{"ha":778,"x_min":56,"x_max":722,"o":"m 361 -10 q 135 78 215 -10 q 56 317 56 167 l 56 517 q 135 754 56 667 q 361 842 215 842 l 417 842 q 642 754 563 842 q 722 517 722 667 l 722 317 q 642 78 722 167 q 417 -10 563 -10 l 361 -10 m 417 157 q 535 317 535 157 l 535 517 q 417 675 535 675 l 361 675 q 243 517 243 675 l 243 317 q 361 157 243 157 l 417 157 z "},"p":{"ha":776,"x_min":56,"x_max":693,"o":"m 56 833 l 406 833 q 624 782 554 833 q 693 607 693 731 l 693 549 q 620 366 693 428 q 406 304 547 304 l 243 304 l 243 0 l 56 0 l 56 833 m 392 453 q 442 452 403 453 q 499 470 481 451 q 517 532 517 489 l 517 628 q 492 679 517 669 q 435 688 468 689 q 392 688 401 688 l 243 688 l 243 453 l 392 453 z "},"q":{"ha":833,"x_min":56,"x_max":722,"o":"m 551 -200 q 472 -132 506 -154 q 404 -110 439 -110 q 300 -161 356 -110 l 283 -175 l 197 -82 l 222 -57 q 288 -4 254 -25 q 116 100 176 15 q 56 317 56 185 l 56 517 q 135 754 56 667 q 361 842 215 842 l 417 842 q 642 754 563 842 q 722 517 722 667 l 722 317 q 676 123 722 203 q 544 11 631 43 q 658 -71 608 -21 l 692 -104 l 574 -221 l 551 -200 m 410 157 q 505 197 475 157 q 535 317 535 238 l 535 517 q 417 675 535 675 l 361 675 q 243 517 243 675 l 243 317 q 273 197 243 238 q 368 157 303 157 l 410 157 z "},"r":{"ha":749,"x_min":56,"x_max":693,"o":"m 56 833 l 406 833 q 624 782 554 833 q 693 607 693 731 l 693 549 q 560 331 693 386 l 690 0 l 503 0 l 385 304 l 243 304 l 243 0 l 56 0 l 56 833 m 392 453 q 442 452 403 453 q 499 470 481 451 q 517 532 517 489 l 517 628 q 492 679 517 669 q 435 688 468 689 q 392 688 401 688 l 243 688 l 243 453 l 392 453 z "},"s":{"ha":833,"x_min":56,"x_max":722,"o":"m 354 -10 q 196 26 264 -10 q 92 115 128 61 q 56 225 56 169 l 56 271 l 243 271 l 243 240 q 257 206 243 225 q 299 172 271 186 q 368 157 328 157 l 410 157 q 506 172 478 157 q 535 229 535 188 l 535 271 q 494 321 535 306 q 367 349 453 336 q 217 380 276 363 q 110 438 157 397 q 57 550 64 479 l 56 550 l 56 638 q 91 742 56 696 q 194 815 126 789 q 354 842 261 842 l 425 842 q 567 814 504 842 q 668 741 629 786 q 718 646 707 696 l 535 588 l 535 592 q 521 626 535 607 q 478 660 507 646 q 410 675 450 675 l 368 675 q 272 663 301 675 q 243 624 243 651 l 243 575 q 283 529 243 544 q 407 500 322 514 q 560 465 499 483 q 669 404 622 446 q 722 292 715 363 l 722 204 q 643 49 722 107 q 425 -10 564 -10 l 354 -10 z "},"t":{"ha":653,"x_min":56,"x_max":597,"o":"m 232 667 l 56 667 l 56 833 l 597 833 l 597 667 l 419 667 l 419 0 l 232 0 l 232 667 z "},"u":{"ha":778,"x_min":56,"x_max":722,"o":"m 354 -14 q 135 74 214 -14 q 56 313 56 163 l 56 831 l 243 831 l 243 313 q 368 153 243 153 l 410 153 q 535 313 535 153 l 535 831 l 722 831 l 722 313 q 644 74 722 163 q 425 -14 565 -14 l 354 -14 z "},"v":{"ha":783,"x_min":69,"x_max":714,"o":"m 69 833 l 247 833 l 389 172 l 393 172 l 536 833 l 714 833 l 528 0 l 256 0 l 69 833 z "},"w":{"ha":1250,"x_min":69,"x_max":1181,"o":"m 69 833 l 247 833 l 388 182 l 389 182 l 547 833 l 714 833 l 861 188 l 864 188 l 1003 833 l 1181 833 l 994 0 l 732 0 l 628 469 l 518 0 l 256 0 l 69 833 z "},"x":{"ha":900,"x_min":111,"x_max":789,"o":"m 357 422 l 111 833 l 299 833 l 451 571 l 601 833 l 789 833 l 544 422 l 789 0 l 601 0 l 451 263 l 299 0 l 111 0 l 357 422 z "},"y":{"ha":817,"x_min":69,"x_max":747,"o":"m 315 318 l 69 833 l 257 833 l 410 467 l 560 833 l 747 833 l 503 318 l 503 0 l 315 0 l 315 318 z "},"z":{"ha":667,"x_min":83,"x_max":583,"o":"m 354 667 l 83 667 l 83 833 l 583 833 l 583 699 l 313 167 l 583 167 l 583 0 l 83 0 l 83 136 l 354 667 z "},".":{"ha":361,"x_min":56,"x_max":306,"o":"m 56 236 l 306 236 l 306 0 l 56 0 l 56 236 z "},",":{"ha":361,"x_min":56,"x_max":306,"o":"m 56 236 l 306 236 l 306 0 l 236 -208 l 111 -208 l 167 0 l 56 0 l 56 236 z "},":":{"ha":417,"x_min":83,"x_max":333,"o":"m 83 236 l 333 236 l 333 0 l 83 0 l 83 236 m 83 804 l 333 804 l 333 568 l 83 568 l 83 804 z "},";":{"ha":389,"x_min":56,"x_max":306,"o":"m 56 804 l 306 804 l 306 568 l 56 568 l 56 804 m 56 236 l 306 236 l 306 0 l 236 -208 l 111 -208 l 167 0 l 56 0 l 56 236 z "},"!":{"ha":417,"x_min":83,"x_max":333,"o":"m 83 1111 l 333 1111 l 292 360 l 125 360 l 83 1111 m 83 236 l 333 236 l 333 0 l 83 0 l 83 236 z "},"?":{"ha":833,"x_min":32,"x_max":835,"o":"m 131 375 q 177 524 133 472 q 279 592 221 575 q 428 621 338 610 q 524 637 490 629 q 579 664 557 644 q 601 719 601 683 l 601 803 q 590 863 601 842 q 550 892 579 883 q 465 900 521 900 l 424 900 q 338 881 374 900 q 283 835 301 861 q 265 789 265 808 l 265 747 l 32 747 l 32 808 q 78 955 32 882 q 209 1075 124 1028 q 406 1122 294 1122 l 483 1122 q 835 868 835 1122 l 835 751 q 792 586 835 644 q 688 505 749 528 q 536 465 626 482 q 418 434 456 451 q 381 375 381 417 l 381 347 l 131 347 l 131 375 m 117 236 l 367 236 l 367 0 l 117 0 l 117 236 z "},"*":{"ha":782,"x_min":69,"x_max":713,"o":"m 322 667 l 146 556 l 69 689 l 254 786 l 69 882 l 146 1015 l 322 904 l 314 1113 l 467 1113 l 458 904 l 636 1015 l 713 883 l 528 785 l 713 688 l 636 556 l 458 667 l 467 458 l 314 458 l 322 667 z "},"#":{"ha":1306,"x_min":111,"x_max":1194,"o":"m 314 307 l 111 307 l 111 474 l 358 474 l 404 644 l 111 644 l 111 811 l 449 811 l 529 1111 l 696 1111 l 615 811 l 840 811 l 921 1111 l 1088 1111 l 1007 811 l 1194 811 l 1194 644 l 963 644 l 917 474 l 1194 474 l 1194 307 l 872 307 l 790 0 l 624 0 l 706 307 l 481 307 l 399 0 l 232 0 l 314 307 m 750 474 l 796 644 l 571 644 l 525 474 l 750 474 z "},"-":{"ha":708,"x_min":56,"x_max":653,"o":"m 56 332 l 56 526 l 653 526 l 653 332 l 56 332 z "},"(":{"ha":389,"x_min":69,"x_max":361,"o":"m 153 -167 q 134 -43 143 -96 q 119 46 125 10 q 82 282 94 189 q 69 471 69 375 q 81 656 69 565 q 118 897 93 746 q 153 1111 142 1035 l 361 1111 q 299 799 319 942 q 278 486 278 657 q 361 -167 278 194 l 153 -167 z "},")":{"ha":389,"x_min":63,"x_max":354,"o":"m 63 -167 q 146 486 146 194 q 125 799 146 657 q 63 1111 104 942 l 271 1111 q 306 897 282 1035 q 342 656 331 746 q 354 471 354 565 q 342 282 354 375 q 304 46 329 189 q 290 -43 299 10 q 271 -167 281 -96 l 63 -167 z "},"{":{"ha":629,"x_min":83,"x_max":546,"o":"m 179 822 q 258 1042 175 974 q 479 1111 342 1111 l 546 1111 l 546 931 l 501 931 q 462 931 497 931 q 401 908 426 932 q 376 836 376 883 l 376 710 l 182 710 l 179 822 m 182 168 l 182 246 q 157 341 182 318 q 90 364 132 364 l 83 364 l 83 563 l 110 561 q 182 638 182 561 l 182 710 l 376 710 l 376 638 q 351 536 376 581 q 264 460 326 492 q 351 370 326 422 q 376 246 376 318 l 376 168 l 182 168 m 376 104 q 397 36 376 57 q 438 13 418 15 q 492 10 458 10 l 546 10 l 546 -167 l 492 -167 q 264 -101 346 -167 q 182 118 182 -35 l 182 168 l 376 168 l 376 104 z "},"}":{"ha":629,"x_min":83,"x_max":546,"o":"m 253 710 l 253 836 q 231 904 253 883 q 189 928 210 925 q 128 931 168 931 l 83 931 l 83 1111 l 150 1111 q 371 1042 288 1111 q 450 822 454 974 l 447 710 l 253 710 m 253 246 q 278 370 253 318 q 365 460 303 422 q 278 536 303 492 q 253 638 253 581 l 253 710 l 447 710 l 447 638 q 464 581 447 597 q 498 563 481 564 q 546 563 515 561 l 546 364 l 539 364 q 472 341 497 364 q 447 246 447 318 l 447 168 l 253 168 l 253 246 m 447 168 l 447 118 q 365 -101 447 -35 q 138 -167 283 -167 l 83 -167 l 83 10 l 138 10 q 172 9 140 10 q 228 33 204 8 q 253 104 253 57 l 253 168 l 447 168 z "},"“":{"ha":733,"x_min":83,"x_max":650,"o":"m 650 667 l 400 667 l 400 903 l 469 1111 l 594 1111 l 539 903 l 650 903 l 650 667 m 333 667 l 83 667 l 83 903 l 153 1111 l 278 1111 l 222 903 l 333 903 l 333 667 z "},"”":{"ha":733,"x_min":83,"x_max":650,"o":"m 83 1111 l 333 1111 l 333 875 l 264 667 l 139 667 l 194 875 l 83 875 l 83 1111 m 400 1111 l 650 1111 l 650 875 l 581 667 l 456 667 l 511 875 l 400 875 l 400 1111 z "},"‘":{"ha":389,"x_min":83,"x_max":333,"o":"m 333 667 l 83 667 l 83 903 l 153 1111 l 278 1111 l 222 903 l 333 903 l 333 667 z "},"’":{"ha":389,"x_min":56,"x_max":306,"o":"m 56 1110 l 306 1110 l 306 874 l 236 665 l 111 665 l 167 874 l 56 874 l 56 1110 z "},"\"":{"ha":833,"x_min":56,"x_max":622,"o":"m 56 1111 l 306 1111 l 306 875 l 236 667 l 111 667 l 167 875 l 56 875 l 56 1111 m 372 1111 l 622 1111 l 622 875 l 553 667 l 428 667 l 483 875 l 372 875 l 372 1111 z "},"'":{"ha":389,"x_min":56,"x_max":306,"o":"m 56 1111 l 306 1111 l 306 875 l 236 667 l 111 667 l 167 875 l 56 875 l 56 1111 z "},"&":{"ha":914,"x_min":83,"x_max":831,"o":"m 476 -22 q 181 51 278 -22 q 83 278 83 124 l 83 318 q 101 458 83 404 q 163 547 118 511 q 196 571 179 561 q 108 647 133 603 q 83 749 83 692 l 83 822 q 178 1044 83 978 q 467 1111 272 1111 l 683 1111 l 683 917 l 486 917 l 440 917 q 349 899 378 917 q 319 822 319 882 l 319 749 q 338 687 319 704 q 381 669 356 669 q 408 674 388 669 l 797 760 l 797 589 l 663 550 l 683 531 q 794 413 758 460 q 831 318 831 367 l 831 278 q 749 59 831 131 q 497 -22 667 -12 l 476 -22 m 493 189 q 569 206 544 189 q 594 278 594 222 l 594 318 q 555 410 594 369 q 458 489 515 450 l 408 475 q 374 463 389 469 q 344 439 358 456 q 326 390 333 417 q 319 318 319 363 l 319 278 q 348 206 319 222 q 433 189 376 189 l 476 189 l 493 189 z "},"•":{"ha":833,"x_min":265,"x_max":578,"o":"m 422 224 q 311 269 357 224 q 265 381 265 315 q 311 491 265 446 q 422 536 357 536 q 533 491 488 536 q 578 381 578 446 q 533 269 578 315 q 422 224 488 224 z "},"/":{"ha":833,"x_min":203,"x_max":626,"o":"m 626 961 l 335 -224 l 203 -224 l 494 961 l 626 961 z "},"\\":{"ha":833,"x_min":201,"x_max":625,"o":"m 625 -224 l 493 -224 l 201 961 l 333 961 l 625 -224 z "},"–":{"ha":844,"x_min":56,"x_max":789,"o":"m 56 315 l 56 510 l 789 510 l 789 315 l 56 315 z "},"—":{"ha":833,"x_min":-328,"x_max":1076,"o":"m -328 315 l -328 510 l 1076 510 l 1076 315 l -328 315 z "},"_":{"ha":806,"x_min":56,"x_max":750,"o":"m 56 -236 l 56 -42 l 750 -42 l 750 -236 l 56 -236 z "},"[":{"ha":833,"x_min":354,"x_max":679,"o":"m 486 -224 l 354 -224 l 354 901 l 486 901 l 486 -224 m 679 901 l 679 801 l 354 801 l 354 901 l 679 901 m 679 -124 l 679 -224 l 354 -224 l 354 -124 l 679 -124 z "},"]":{"ha":492,"x_min":83,"x_max":408,"o":"m 408 901 l 408 -224 l 276 -224 l 276 901 l 408 901 m 408 801 l 83 801 l 83 901 l 408 901 l 408 801 m 408 -224 l 83 -224 l 83 -124 l 408 -124 l 408 -224 z "},"@":{"ha":1204,"x_min":111,"x_max":1100,"o":"m 578 165 q 481 188 522 165 q 419 256 440 211 q 399 356 399 300 l 399 488 q 419 590 399 544 q 481 660 440 635 q 578 685 522 685 l 621 685 q 745 651 699 685 q 803 553 792 617 l 692 519 q 670 569 689 556 q 615 582 651 582 l 589 582 q 531 556 550 582 q 513 481 513 531 l 513 367 q 531 289 513 313 q 589 265 549 265 l 615 265 q 659 272 643 265 q 683 296 675 279 q 692 347 692 313 l 692 369 l 806 367 l 806 339 q 758 208 806 251 q 621 165 711 165 l 578 165 m 983 314 q 1000 435 1000 372 q 946 629 1000 540 q 800 770 892 718 q 603 822 708 822 q 404 769 496 822 q 259 624 313 715 q 206 425 206 532 q 259 226 206 318 q 404 81 313 135 q 603 28 496 28 q 747 56 678 28 q 871 132 817 83 l 950 78 q 792 -28 882 10 q 603 -67 703 -67 q 356 -1 469 -67 q 177 178 243 65 q 111 425 111 292 q 177 671 111 558 q 356 849 243 783 q 603 915 469 915 q 852 849 736 915 q 1034 670 968 783 q 1093 425 1100 557 q 1091 388 1093 417 q 1081 325 1089 360 l 983 314 m 849 599 q 806 511 806 586 l 806 397 q 824 322 806 347 q 882 296 843 296 l 908 296 q 968 313 944 296 q 994 365 992 329 l 1085 343 q 1033 236 1074 279 q 914 193 992 193 l 871 193 q 774 218 815 193 q 713 281 733 243 q 692 371 692 319 l 692 522 q 713 622 692 578 q 760 685 733 667 q 833 703 788 703 l 874 606 l 849 599 z "},"©":{"ha":833,"x_min":-22,"x_max":865,"o":"m 422 -19 q 199 40 301 -19 q 38 202 97 100 q -22 425 -22 304 q 38 647 -22 546 q 199 808 97 749 q 422 868 301 868 q 644 808 543 868 q 806 647 746 749 q 865 425 865 546 q 806 202 865 304 q 644 40 746 100 q 422 -19 543 -19 m 400 190 q 313 211 350 190 q 256 272 275 232 q 238 363 238 313 l 238 482 q 256 574 238 533 q 313 637 275 614 q 400 660 350 660 l 439 660 q 551 629 508 660 q 603 540 593 599 l 503 510 q 483 555 500 543 q 433 567 467 567 l 410 567 q 358 544 375 567 q 340 475 340 521 l 340 372 q 357 302 340 324 q 410 281 374 281 l 433 281 q 473 287 458 281 q 495 308 488 293 q 503 354 503 324 l 503 372 l 606 372 l 606 347 q 563 229 606 268 q 439 190 519 190 l 400 190 m 422 67 q 602 115 519 67 q 733 247 685 164 q 781 425 781 329 q 732 604 781 522 q 601 735 683 686 q 422 783 519 783 q 243 735 325 783 q 113 604 161 686 q 64 425 64 522 q 113 246 64 328 q 243 115 161 164 q 422 67 325 67 z "},"|":{"ha":833,"x_min":354,"x_max":486,"o":"m 486 -224 l 354 -224 l 354 1043 l 486 1043 l 486 -224 z "},"$":{"ha":1056,"x_min":132,"x_max":881,"o":"m 467 -14 q 289 26 365 -14 q 172 127 213 65 q 132 250 132 189 l 132 301 l 343 301 l 343 267 q 358 228 343 250 q 406 190 374 206 q 483 174 438 174 l 529 174 q 638 191 607 174 q 669 256 669 208 l 669 301 q 624 358 669 340 q 482 389 579 375 q 313 424 381 406 q 194 489 246 443 q 133 615 142 535 l 132 615 l 132 714 q 172 831 132 779 q 287 913 211 883 q 467 943 363 943 l 546 943 q 706 911 636 943 q 819 829 776 879 q 876 722 863 779 l 669 657 l 669 663 q 654 701 669 679 q 607 740 639 724 q 529 756 575 756 l 483 756 q 376 742 408 756 q 343 697 343 728 l 343 643 q 387 591 343 607 q 525 558 431 575 q 697 519 628 540 q 820 452 767 499 q 881 325 874 406 l 881 228 q 841 101 881 156 q 726 17 801 47 q 546 -14 650 -14 l 467 -14 m 557 -115 l 425 -115 l 425 1063 l 557 1063 l 557 -115 z "},"€":{"ha":738,"x_min":-28,"x_max":633,"o":"m 500 617 l 500 506 l -28 506 l -28 617 l 500 617 m 500 415 l 500 304 l -28 304 l -28 415 l 500 415 m 633 83 q 403 -14 564 -14 l 336 -14 q 187 24 250 -14 q 91 128 124 61 q 58 285 58 196 l 58 668 q 91 824 58 757 q 187 929 124 892 q 336 967 250 967 l 403 967 q 614 892 543 967 l 478 786 q 389 810 451 810 l 350 810 q 262 771 290 810 q 233 654 233 732 l 233 299 q 261 181 233 219 q 350 142 289 142 l 389 142 q 458 153 436 142 q 488 176 481 165 l 633 83 z "},"£":{"ha":833,"x_min":125,"x_max":743,"o":"m 625 567 l 625 424 l 125 424 l 125 567 l 625 567 m 126 160 q 231 503 276 278 l 188 717 q 211 872 169 804 q 316 978 253 940 q 465 1015 379 1015 l 532 1015 q 743 940 672 1015 l 607 835 q 518 858 581 858 l 479 858 q 390 819 419 858 q 379 703 361 781 l 422 517 q 331 160 478 275 l 126 160 m 654 160 l 654 0 l 126 0 l 126 160 l 654 160 z "},"+":{"ha":833,"x_min":75,"x_max":742,"o":"m 304 743 l 513 743 l 513 76 l 304 76 l 304 743 m 75 313 l 75 507 l 742 507 l 742 313 l 75 313 z "},"−":{"ha":764,"x_min":83,"x_max":681,"o":"m 83 325 l 83 519 l 681 519 l 681 325 l 83 325 z "},"×":{"ha":833,"x_min":78,"x_max":706,"o":"m 568 708 l 706 572 l 214 81 l 78 218 l 568 708 m 82 576 l 210 704 l 701 213 l 574 85 l 82 576 z "},"÷":{"ha":824,"x_min":56,"x_max":768,"o":"m 56 336 l 56 517 l 768 517 l 768 336 l 56 336 m 318 749 l 475 749 l 475 600 l 318 600 l 318 749 m 318 238 l 475 238 l 475 89 l 318 89 l 318 238 z "},"=":{"ha":833,"x_min":75,"x_max":742,"o":"m 75 449 l 75 643 l 742 643 l 742 449 l 75 449 m 75 153 l 75 347 l 742 347 l 742 153 l 75 153 z "},">":{"ha":833,"x_min":104,"x_max":690,"o":"m 188 0 l 104 144 l 524 374 l 126 657 l 210 801 l 690 483 l 690 290 l 188 0 z "},"<":{"ha":833,"x_min":111,"x_max":697,"o":"m 111 483 l 592 801 l 675 657 l 278 374 l 697 144 l 614 0 l 111 290 l 111 483 z "}}}
